<mxfile host="app.diagrams.net" modified="2023-10-20T09:21:56.231Z" agent="Mozilla/5.0 (Windows NT 10.0; Win64; x64) AppleWebKit/537.36 (KHTML, like Gecko) Chrome/118.0.0.0 Safari/537.36" etag="VUo9_rWVNWuveAeQhwf2" version="22.0.5" type="device">
  <diagram name="Page-1" id="2YBvvXClWsGukQMizWep">
    <mxGraphModel dx="1671" dy="978" grid="1" gridSize="10" guides="1" tooltips="1" connect="1" arrows="1" fold="1" page="1" pageScale="1" pageWidth="850" pageHeight="1100" math="0" shadow="0">
      <root>
        <mxCell id="0" />
        <mxCell id="1" parent="0" />
        <mxCell id="KqYLICt4tUIHN2O6VlEI-1" value="" style="endArrow=none;html=1;rounded=0;fontSize=12;startSize=8;endSize=8;curved=1;" edge="1" parent="1">
          <mxGeometry width="50" height="50" relative="1" as="geometry">
            <mxPoint x="-670" y="120" as="sourcePoint" />
            <mxPoint x="590" y="110" as="targetPoint" />
          </mxGeometry>
        </mxCell>
        <object label="Customer" Customer="" id="KqYLICt4tUIHN2O6VlEI-3">
          <mxCell style="shape=umlActor;verticalLabelPosition=bottom;verticalAlign=top;html=1;outlineConnect=0;fontSize=16;" vertex="1" parent="1">
            <mxGeometry x="470" y="10" width="20" height="50" as="geometry" />
          </mxCell>
        </object>
        <mxCell id="KqYLICt4tUIHN2O6VlEI-4" value="Admin" style="shape=umlActor;verticalLabelPosition=bottom;verticalAlign=top;html=1;outlineConnect=0;fontSize=16;" vertex="1" parent="1">
          <mxGeometry x="-530" y="20" width="20" height="50" as="geometry" />
        </mxCell>
        <mxCell id="KqYLICt4tUIHN2O6VlEI-12" value="" style="endArrow=none;html=1;rounded=0;fontSize=12;startSize=8;endSize=8;curved=1;" edge="1" parent="1">
          <mxGeometry width="50" height="50" relative="1" as="geometry">
            <mxPoint x="-520" y="220" as="sourcePoint" />
            <mxPoint x="-520" y="100" as="targetPoint" />
          </mxGeometry>
        </mxCell>
        <mxCell id="KqYLICt4tUIHN2O6VlEI-13" value="" style="endArrow=none;html=1;rounded=0;fontSize=12;startSize=8;endSize=8;curved=1;" edge="1" parent="1">
          <mxGeometry width="50" height="50" relative="1" as="geometry">
            <mxPoint x="479.28999999999996" y="220" as="sourcePoint" />
            <mxPoint x="479.28999999999996" y="90" as="targetPoint" />
          </mxGeometry>
        </mxCell>
        <mxCell id="KqYLICt4tUIHN2O6VlEI-14" value="" style="endArrow=none;html=1;rounded=0;fontSize=12;startSize=8;endSize=8;curved=1;" edge="1" parent="1">
          <mxGeometry width="50" height="50" relative="1" as="geometry">
            <mxPoint x="-520" y="220" as="sourcePoint" />
            <mxPoint x="-50" y="220" as="targetPoint" />
          </mxGeometry>
        </mxCell>
        <mxCell id="KqYLICt4tUIHN2O6VlEI-15" value="" style="endArrow=none;html=1;rounded=0;fontSize=12;startSize=8;endSize=8;curved=1;" edge="1" parent="1">
          <mxGeometry width="50" height="50" relative="1" as="geometry">
            <mxPoint x="10" y="220" as="sourcePoint" />
            <mxPoint x="480" y="220" as="targetPoint" />
          </mxGeometry>
        </mxCell>
        <mxCell id="KqYLICt4tUIHN2O6VlEI-16" value="login" style="ellipse;whiteSpace=wrap;html=1;fontSize=16;" vertex="1" parent="1">
          <mxGeometry x="-80" y="260" width="120" height="80" as="geometry" />
        </mxCell>
        <mxCell id="KqYLICt4tUIHN2O6VlEI-17" value="" style="endArrow=none;html=1;rounded=0;fontSize=12;startSize=8;endSize=8;curved=1;exitX=0.25;exitY=0.125;exitDx=0;exitDy=0;exitPerimeter=0;" edge="1" parent="1" source="KqYLICt4tUIHN2O6VlEI-16">
          <mxGeometry width="50" height="50" relative="1" as="geometry">
            <mxPoint x="-50" y="248" as="sourcePoint" />
            <mxPoint x="-50" y="220" as="targetPoint" />
          </mxGeometry>
        </mxCell>
        <mxCell id="KqYLICt4tUIHN2O6VlEI-18" value="" style="endArrow=none;html=1;rounded=0;fontSize=12;startSize=8;endSize=8;curved=1;exitX=0.75;exitY=0.125;exitDx=0;exitDy=0;exitPerimeter=0;" edge="1" parent="1" source="KqYLICt4tUIHN2O6VlEI-16">
          <mxGeometry width="50" height="50" relative="1" as="geometry">
            <mxPoint x="-40" y="258" as="sourcePoint" />
            <mxPoint x="10" y="220" as="targetPoint" />
          </mxGeometry>
        </mxCell>
        <mxCell id="KqYLICt4tUIHN2O6VlEI-19" value="admin login" style="ellipse;whiteSpace=wrap;html=1;fontSize=16;" vertex="1" parent="1">
          <mxGeometry x="-190" y="330" width="120" height="80" as="geometry" />
        </mxCell>
        <mxCell id="KqYLICt4tUIHN2O6VlEI-20" value="customer login" style="ellipse;whiteSpace=wrap;html=1;fontSize=16;" vertex="1" parent="1">
          <mxGeometry x="30" y="330" width="120" height="80" as="geometry" />
        </mxCell>
        <mxCell id="KqYLICt4tUIHN2O6VlEI-21" value="" style="endArrow=classic;html=1;rounded=0;fontSize=12;startSize=8;endSize=8;curved=1;entryX=0;entryY=0.5;entryDx=0;entryDy=0;exitX=0.5;exitY=0;exitDx=0;exitDy=0;" edge="1" parent="1" source="KqYLICt4tUIHN2O6VlEI-19" target="KqYLICt4tUIHN2O6VlEI-16">
          <mxGeometry width="50" height="50" relative="1" as="geometry">
            <mxPoint x="-20" y="480" as="sourcePoint" />
            <mxPoint x="-30" y="430" as="targetPoint" />
          </mxGeometry>
        </mxCell>
        <mxCell id="KqYLICt4tUIHN2O6VlEI-22" value="" style="endArrow=classic;html=1;rounded=0;fontSize=12;startSize=8;endSize=8;curved=1;entryX=1;entryY=0.5;entryDx=0;entryDy=0;exitX=0.5;exitY=0;exitDx=0;exitDy=0;" edge="1" parent="1" source="KqYLICt4tUIHN2O6VlEI-20" target="KqYLICt4tUIHN2O6VlEI-16">
          <mxGeometry width="50" height="50" relative="1" as="geometry">
            <mxPoint x="-120" y="350" as="sourcePoint" />
            <mxPoint x="-70" y="310" as="targetPoint" />
          </mxGeometry>
        </mxCell>
        <mxCell id="KqYLICt4tUIHN2O6VlEI-25" value="&lt;div style=&quot;border-color: var(--border-color);&quot;&gt;Administrator Panel:&lt;/div&gt;&lt;div style=&quot;border-color: var(--border-color);&quot;&gt;1. Create a New User;&lt;/div&gt;&lt;div style=&quot;border-color: var(--border-color);&quot;&gt;2. List of All Users;&lt;/div&gt;&lt;div style=&quot;border-color: var(--border-color);&quot;&gt;3. Delete a User;&lt;/div&gt;&lt;div style=&quot;border-color: var(--border-color);&quot;&gt;4. Product Catalog;&lt;/div&gt;&lt;div style=&quot;border-color: var(--border-color);&quot;&gt;5. List of All Orders.&lt;/div&gt;" style="rounded=1;whiteSpace=wrap;html=1;fontSize=16;" vertex="1" parent="1">
          <mxGeometry x="-470" y="420" width="235" height="120" as="geometry" />
        </mxCell>
        <mxCell id="KqYLICt4tUIHN2O6VlEI-26" value="" style="endArrow=classic;html=1;rounded=0;fontSize=12;startSize=8;endSize=8;curved=1;entryX=-0.01;entryY=0.66;entryDx=0;entryDy=0;entryPerimeter=0;exitX=1;exitY=0.5;exitDx=0;exitDy=0;" edge="1" parent="1" source="KqYLICt4tUIHN2O6VlEI-25" target="KqYLICt4tUIHN2O6VlEI-19">
          <mxGeometry width="50" height="50" relative="1" as="geometry">
            <mxPoint x="-710" y="380" as="sourcePoint" />
            <mxPoint x="-310" y="580" as="targetPoint" />
          </mxGeometry>
        </mxCell>
        <mxCell id="KqYLICt4tUIHN2O6VlEI-27" value="Product Catalog:&lt;br&gt;&lt;div&gt;1. Add a new product;&lt;/div&gt;&lt;div&gt;2. List all products;&lt;/div&gt;&lt;div&gt;3. Delete a product.&lt;/div&gt;" style="rounded=1;whiteSpace=wrap;html=1;fontSize=16;" vertex="1" parent="1">
          <mxGeometry x="-475" y="600" width="240" height="120" as="geometry" />
        </mxCell>
        <mxCell id="KqYLICt4tUIHN2O6VlEI-28" value="&lt;div&gt;Customer Panel;&lt;/div&gt;&lt;div&gt;1. Place a New Order;&lt;/div&gt;&lt;div&gt;2. View Orders.&lt;/div&gt;" style="rounded=1;whiteSpace=wrap;html=1;fontSize=16;" vertex="1" parent="1">
          <mxGeometry x="260" y="400" width="230" height="120" as="geometry" />
        </mxCell>
        <mxCell id="KqYLICt4tUIHN2O6VlEI-30" value="" style="endArrow=classic;html=1;rounded=0;fontSize=12;startSize=8;endSize=8;curved=1;entryX=0.99;entryY=0.733;entryDx=0;entryDy=0;entryPerimeter=0;exitX=0;exitY=0.5;exitDx=0;exitDy=0;" edge="1" parent="1" source="KqYLICt4tUIHN2O6VlEI-28" target="KqYLICt4tUIHN2O6VlEI-20">
          <mxGeometry width="50" height="50" relative="1" as="geometry">
            <mxPoint x="-305" y="470" as="sourcePoint" />
            <mxPoint x="-181" y="393" as="targetPoint" />
          </mxGeometry>
        </mxCell>
        <mxCell id="KqYLICt4tUIHN2O6VlEI-31" value="" style="endArrow=classic;html=1;rounded=0;fontSize=12;startSize=8;endSize=8;curved=1;entryX=0.5;entryY=1;entryDx=0;entryDy=0;exitX=0.5;exitY=0;exitDx=0;exitDy=0;" edge="1" parent="1" source="KqYLICt4tUIHN2O6VlEI-27" target="KqYLICt4tUIHN2O6VlEI-25">
          <mxGeometry width="50" height="50" relative="1" as="geometry">
            <mxPoint x="-700" y="570" as="sourcePoint" />
            <mxPoint x="-650" y="520" as="targetPoint" />
          </mxGeometry>
        </mxCell>
        <mxCell id="KqYLICt4tUIHN2O6VlEI-33" value="" style="endArrow=none;html=1;rounded=0;fontSize=12;startSize=8;endSize=8;curved=1;" edge="1" parent="1">
          <mxGeometry width="50" height="50" relative="1" as="geometry">
            <mxPoint x="-660" y="800" as="sourcePoint" />
            <mxPoint x="-670" y="120" as="targetPoint" />
          </mxGeometry>
        </mxCell>
        <mxCell id="KqYLICt4tUIHN2O6VlEI-34" value="" style="endArrow=none;html=1;rounded=0;fontSize=12;startSize=8;endSize=8;curved=1;" edge="1" parent="1">
          <mxGeometry width="50" height="50" relative="1" as="geometry">
            <mxPoint x="-660" y="800" as="sourcePoint" />
            <mxPoint x="590" y="800" as="targetPoint" />
          </mxGeometry>
        </mxCell>
        <mxCell id="KqYLICt4tUIHN2O6VlEI-35" value="" style="endArrow=none;html=1;rounded=0;fontSize=12;startSize=8;endSize=8;curved=1;" edge="1" parent="1">
          <mxGeometry width="50" height="50" relative="1" as="geometry">
            <mxPoint x="590" y="800" as="sourcePoint" />
            <mxPoint x="590" y="110" as="targetPoint" />
          </mxGeometry>
        </mxCell>
      </root>
    </mxGraphModel>
  </diagram>
</mxfile>
